<svg width="468" height="232" viewBox="0 0 468 232" fill="none" xmlns="http://www.w3.org/2000/svg">
<path d="M36.2813 127C61.9612 127 78.4013 108.4 78.4013 83.56C78.4013 58.36 62.5613 40.84 36.2813 40.84H9.04125V127H36.2813ZM22.2413 52.24H35.6813C54.2813 52.24 64.8413 64.12 64.8413 83.56C64.8413 103.36 54.2813 115.6 35.6813 115.6H22.2413V52.24ZM146.864 105.52H134.744C132.824 113.8 126.584 118.72 117.464 118.72C106.784 118.72 99.8241 110.68 99.5841 98.2H146.864C148.904 77.56 136.424 62.2 117.344 62.2C99.8241 62.2 86.9841 76 86.9841 94.84C86.9841 115 99.4641 128.2 117.704 128.2C132.704 128.2 143.624 119.56 146.864 105.52ZM117.104 71.32C126.944 71.32 133.304 78.52 133.904 90.16H99.5841C100.304 79 107.384 71.32 117.104 71.32ZM261.271 128.2C278.311 128.2 289.231 114.4 289.231 95.2C289.231 76 278.191 62.2 261.271 62.2C252.271 62.2 244.591 66.88 240.031 75.04V63.4H228.751V150.16H240.751V116.2C245.311 123.88 252.631 128.2 261.271 128.2ZM240.751 95.2C240.991 80.92 248.671 72.88 258.751 72.88C269.191 72.88 276.751 80.92 276.751 95.2C276.751 109.48 269.191 117.4 258.751 117.4C248.551 117.4 240.631 109.24 240.751 95.2Z" fill="#090766"/>
<path d="M215.888 105.52H203.768C201.848 113.8 195.608 118.72 186.488 118.72C175.808 118.72 168.848 110.68 168.608 98.2H215.888C217.928 77.56 205.448 62.2 186.368 62.2C168.848 62.2 156.008 76 156.008 94.84C156.008 115 168.488 128.2 186.728 128.2C201.728 128.2 212.648 119.56 215.888 105.52ZM186.128 71.32C195.968 71.32 202.328 78.52 202.928 90.16H168.608C169.327 79 176.408 71.32 186.128 71.32Z" fill="#D73972"/>
<path d="M211.496 178.04C211.496 168.92 205.496 163.4 193.016 161.12L182.216 159.08C174.776 157.64 171.176 155.36 171.176 150.32C171.176 144.92 176.096 141.2 184.016 141.2C192.656 141.2 198.296 145.64 199.016 153.44H210.536C209.576 140.36 199.256 132.08 184.016 132.08C169.856 132.08 159.536 140 159.536 151.16C159.536 161.12 166.496 166.88 177.896 169.04L188.096 170.96C195.896 172.4 199.256 174.8 199.256 179.72C199.256 185.36 194.456 189.08 184.736 189.08C175.496 189.08 169.016 184.52 168.536 176.24H157.016C158.216 190.16 169.136 198.2 184.976 198.2C202.136 198.2 211.496 189.92 211.496 178.04Z" fill="#CB366C"/>
<path d="M259.908 195.92V185.24C257.388 186.44 254.988 186.92 252.108 186.92C245.508 186.92 241.308 183.8 241.308 175.04V143.72H260.508V133.4H241.308V114.56H229.188V133.4H215.268V143.72H229.188V177.8C229.188 191.84 237.348 198.2 249.108 198.2C253.068 198.2 256.308 197.6 259.908 195.92ZM312.627 197H323.907V133.4H311.787V170.84C311.787 180.8 305.427 187.52 297.147 187.52C289.467 187.52 283.947 182.96 283.947 171.92V133.4H271.827V174.32C271.827 190.64 280.707 198.2 293.547 198.2C302.187 198.2 309.267 193.4 312.627 186.68V197ZM385.884 197H397.044V110.84H385.044V144.32C380.484 136.52 373.164 132.2 364.524 132.2C347.364 132.2 336.324 145.88 336.324 165.2C336.324 184.28 347.364 198.2 364.524 198.2C373.644 198.2 381.204 193.64 385.884 185.6V197ZM348.804 165.2C348.804 150.8 356.484 142.88 366.924 142.88C377.124 142.88 384.804 150.68 385.044 164.96C385.284 179 377.364 187.4 366.924 187.4C356.484 187.4 348.804 179.36 348.804 165.2ZM466.929 133.4H454.689L437.529 181.88L419.049 133.4H405.969L431.049 196.16L421.929 220.16H435.129L466.929 133.4Z" fill="#090766"/>
</svg>
