<svg width="90" height="47" viewBox="0 0 90 47" fill="none" xmlns="http://www.w3.org/2000/svg">
<path d="M7.27891 24C12.2009 24 15.3519 20.435 15.3519 15.674C15.3519 10.844 12.3159 7.486 7.27891 7.486H2.05791V24H7.27891ZM4.58791 9.671H7.16391C10.7289 9.671 12.7529 11.948 12.7529 15.674C12.7529 19.469 10.7289 21.815 7.16391 21.815H4.58791V9.671ZM28.4739 19.883H26.1509C25.7829 21.47 24.5869 22.413 22.8389 22.413C20.7919 22.413 19.4579 20.872 19.4119 18.48H28.4739C28.8649 14.524 26.4729 11.58 22.8159 11.58C19.4579 11.58 16.9969 14.225 16.9969 17.836C16.9969 21.7 19.3889 24.23 22.8849 24.23C25.7599 24.23 27.8529 22.574 28.4739 19.883ZM22.7699 13.328C24.6559 13.328 25.8749 14.708 25.9899 16.939H19.4119C19.5499 14.8 20.9069 13.328 22.7699 13.328ZM50.4019 24.23C53.6679 24.23 55.7609 21.585 55.7609 17.905C55.7609 14.225 53.6449 11.58 50.4019 11.58C48.6769 11.58 47.2049 12.477 46.3309 14.041V11.81H44.1689V28.439H46.4689V21.93C47.3429 23.402 48.7459 24.23 50.4019 24.23ZM46.4689 17.905C46.5149 15.168 47.9869 13.627 49.9189 13.627C51.9199 13.627 53.3689 15.168 53.3689 17.905C53.3689 20.642 51.9199 22.16 49.9189 22.16C47.9639 22.16 46.4459 20.596 46.4689 17.905Z" fill="white"/>
<path d="M41.7034 19.883H39.3804C39.0124 21.47 37.8164 22.413 36.0684 22.413C34.0214 22.413 32.6874 20.872 32.6414 18.48H41.7034C42.0944 14.524 39.7024 11.58 36.0454 11.58C32.6874 11.58 30.2264 14.225 30.2264 17.836C30.2264 21.7 32.6184 24.23 36.1144 24.23C38.9894 24.23 41.0824 22.574 41.7034 19.883ZM35.9994 13.328C37.8854 13.328 39.1044 14.708 39.2194 16.939H32.6414C32.7794 14.8 34.1364 13.328 35.9994 13.328Z" fill="#D73972"/>
<path d="M40.5242 36.366C40.5242 34.618 39.3742 33.56 36.9822 33.123L34.9122 32.732C33.4862 32.456 32.7962 32.019 32.7962 31.053C32.7962 30.018 33.7392 29.305 35.2572 29.305C36.9132 29.305 37.9942 30.156 38.1322 31.651H40.3402C40.1562 29.144 38.1782 27.557 35.2572 27.557C32.5432 27.557 30.5652 29.075 30.5652 31.214C30.5652 33.123 31.8992 34.227 34.0842 34.641L36.0392 35.009C37.5342 35.285 38.1782 35.745 38.1782 36.688C38.1782 37.769 37.2582 38.482 35.3952 38.482C33.6242 38.482 32.3822 37.608 32.2902 36.021H30.0822C30.3122 38.689 32.4052 40.23 35.4412 40.23C38.7302 40.23 40.5242 38.643 40.5242 36.366Z" fill="#CB366C"/>
<path d="M49.8033 39.793V37.746C49.3203 37.976 48.8603 38.068 48.3083 38.068C47.0433 38.068 46.2383 37.47 46.2383 35.791V29.788H49.9183V27.81H46.2383V24.199H43.9153V27.81H41.2473V29.788H43.9153V36.32C43.9153 39.011 45.4793 40.23 47.7333 40.23C48.4923 40.23 49.1133 40.115 49.8033 39.793ZM59.9076 40H62.0696V27.81H59.7466V34.986C59.7466 36.895 58.5276 38.183 56.9406 38.183C55.4686 38.183 54.4106 37.309 54.4106 35.193V27.81H52.0876V35.653C52.0876 38.781 53.7896 40.23 56.2506 40.23C57.9066 40.23 59.2636 39.31 59.9076 38.022V40ZM73.9486 40H76.0876V23.486H73.7876V29.903C72.9136 28.408 71.5106 27.58 69.8546 27.58C66.5656 27.58 64.4496 30.202 64.4496 33.905C64.4496 37.562 66.5656 40.23 69.8546 40.23C71.6026 40.23 73.0516 39.356 73.9486 37.815V40ZM66.8416 33.905C66.8416 31.145 68.3136 29.627 70.3146 29.627C72.2696 29.627 73.7416 31.122 73.7876 33.859C73.8336 36.55 72.3156 38.16 70.3146 38.16C68.3136 38.16 66.8416 36.619 66.8416 33.905ZM89.4822 27.81H87.1362L83.8472 37.102L80.3052 27.81H77.7982L82.6052 39.839L80.8572 44.439H83.3872L89.4822 27.81Z" fill="white"/>
</svg>
